solid cubesat_part
  facet normal 0 0 0
    outer loop
      vertex 0.000000 0.000000 0.000000
      vertex 0.100000 0.000000 0.000000
      vertex 0.100000 0.100000 0.000000
    endloop
  endfacet
  facet normal 0 0 0
    outer loop
      vertex 0.000000 0.000000 0.000000
      vertex 0.100000 0.100000 0.000000
      vertex 0.000000 0.100000 0.000000
    endloop
  endfacet
  facet normal 0 0 0
    outer loop
      vertex 0.000000 0.000000 0.100000
      vertex 0.100000 0.000000 0.100000
      vertex 0.100000 0.100000 0.100000
    endloop
  endfacet
  facet normal 0 0 0
    outer loop
      vertex 0.000000 0.000000 0.100000
      vertex 0.100000 0.100000 0.100000
      vertex 0.000000 0.100000 0.100000
    endloop
  endfacet
  facet normal 0 0 0
    outer loop
      vertex 0.000000 0.000000 0.000000
      vertex 0.000000 0.100000 0.000000
      vertex 0.000000 0.100000 0.100000
    endloop
  endfacet
  facet normal 0 0 0
    outer loop
      vertex 0.000000 0.000000 0.000000
      vertex 0.000000 0.100000 0.100000
      vertex 0.000000 0.000000 0.100000
    endloop
  endfacet
  facet normal 0 0 0
    outer loop
      vertex 0.100000 0.000000 0.000000
      vertex 0.100000 0.100000 0.000000
      vertex 0.100000 0.100000 0.100000
    endloop
  endfacet
  facet normal 0 0 0
    outer loop
      vertex 0.100000 0.000000 0.000000
      vertex 0.100000 0.100000 0.100000
      vertex 0.100000 0.000000 0.100000
    endloop
  endfacet
  facet normal 0 0 0
    outer loop
      vertex 0.000000 0.100000 0.000000
      vertex 0.100000 0.100000 0.000000
      vertex 0.100000 0.100000 0.100000
    endloop
  endfacet
  facet normal 0 0 0
    outer loop
      vertex 0.000000 0.100000 0.000000
      vertex 0.100000 0.100000 0.100000
      vertex 0.000000 0.100000 0.100000
    endloop
  endfacet
  facet normal 0 0 0
    outer loop
      vertex 0.000000 0.000000 0.000000
      vertex 0.100000 0.000000 0.000000
      vertex 0.100000 0.000000 0.100000
    endloop
  endfacet
  facet normal 0 0 0
    outer loop
      vertex 0.000000 0.000000 0.000000
      vertex 0.100000 0.000000 0.100000
      vertex 0.000000 0.000000 0.100000
    endloop
  endfacet
endsolid cubesat_part